# xmcd CD database file
#
# Track frame offsets:
#	183
#	18878
#	29948
#	56230
#	66410
#	77433
#	96995
#	110040
#	125765
#	150463
#	168515
#	181215
#	193808
#	207843
#
# Disc length: 2955 seconds
#
# Revision: 3
# Processed by: cddbd v1.5.2PL0 Copyright (c) Steve Scherf et al.
# Submitted via: CDex 1.51
#
DISCID=ca0b890e
DTITLE=Ray Charles - Ingredients In A Recipe For Soul
DYEAR=1963
DGENRE=R&B
TTITLE0=Over The Rainbow
TTITLE1=Ol' Man Time
TTITLE2=In The Evening (When The Sun Goes Down)
TTITLE3=Busted
TTITLE4=A Stranger In Town
TTITLE5=That Lucky Old Sun
TTITLE6=Born To Be Blue
TTITLE7=Where Can I Go
TTITLE8=Ol' Man River
TTITLE9=You'll Never Walk Alone
TTITLE10=Something's Wrong
TTITLE11=The Brightest Smile In Town
TTITLE12=Worried Life Blues
TTITLE13=My Baby (I Love Her, Yes I Do)
EXTD=YEAR: 1963
EXTT0=
EXTT1=
EXTT2=
EXTT3=
EXTT4=
EXTT5=
EXTT6=
EXTT7=
EXTT8=
EXTT9=
EXTT10=
EXTT11=
EXTT12=
EXTT13=
PLAYORDER=
